# xmcd
#
# Track frame offsets:
#	150
#	17991
#	37530
#	54884
#	72756
#	92868
#	109564
#	128359
#	144107
#
# Disc length: 2212 seconds
#
# Revision: 0
# Processed by: cddbd v1.5.1PL2 Copyright (c) Steve Scherf et al.
# Submitted via: dBpowerAMP V4.0
#
DISCID=6008a209
DTITLE=陳奕迅 - 七 DISC 2
DYEAR=2003
DGENRE=
TTITLE0=你的背包
TTITLE1=低等動物
TTITLE2=男人的錯
TTITLE3=LAST ORDER
TTITLE4=沒有手機的日子
TTITLE5=要你的
TTITLE6=全世界失眠
TTITLE7=兄妹
TTITLE8=我們都寂寞
EXTD=
EXTT0=
EXTT1=
EXTT2=
EXTT3=
EXTT4=
EXTT5=
EXTT6=
EXTT7=
EXTT8=
PLAYORDER=
